<svg xmlns="http://www.w3.org/2000/svg" viewBox="0 0 600 450">
      
    <defs>
      <linearGradient id="bgo1" x1="0" y1="0" x2="1" y2="1">
        <stop offset="0" stop-color="#fdeeee"/>
        <stop offset="1" stop-color="#f7dede"/>
      </linearGradient>
      <linearGradient id="tootho1" x1="0" y1="0" x2="0" y2="1">
        <stop offset="0" stop-color="#ffffff"/>
        <stop offset="1" stop-color="#eef1f5"/>
      </linearGradient>
    </defs>
    <rect width="600" height="450" fill="url(#bgo1)"/>
    
      
    <path d="M 90 190 Q 300 90 510 190 Q 300 150 90 190 Z" fill="#c46a72" opacity="0.9"/>
    <path d="M 90 260 Q 300 340 510 260 Q 300 300 90 260 Z" fill="#b85862" opacity="0.9"/>
    
      <rect x="117.0" y="144.8" width="48" height="55" rx="6" fill="#f2f0ea" transform="rotate(1.1 141.0 172.3)" stroke="#d8dde4" stroke-width="1.5"/>
<rect x="170.0" y="147.4" width="48" height="55" rx="6" fill="#f2f0ea" transform="rotate(2.5 194.0 174.9)" stroke="#d8dde4" stroke-width="1.5"/>
<rect x="223.0" y="152.5" width="48" height="55" rx="6" fill="#f2f0ea" transform="rotate(-10.4 247.0 180.0)" stroke="#d8dde4" stroke-width="1.5"/>
<rect x="276.0" y="140.3" width="48" height="55" rx="6" fill="#f2f0ea" transform="rotate(8.1 300.0 167.8)" stroke="#d8dde4" stroke-width="1.5"/>
<rect x="329.0" y="145.2" width="48" height="55" rx="6" fill="#f2f0ea" transform="rotate(-6.4 353.0 172.7)" stroke="#d8dde4" stroke-width="1.5"/>
<rect x="382.0" y="159.9" width="48" height="55" rx="6" fill="#f2f0ea" transform="rotate(-0.7 406.0 187.4)" stroke="#d8dde4" stroke-width="1.5"/>
<rect x="435.0" y="156.7" width="48" height="55" rx="6" fill="#f2f0ea" transform="rotate(-0.6 459.0 184.2)" stroke="#d8dde4" stroke-width="1.5"/><rect x="117.0" y="260.2" width="48" height="40" rx="6" fill="#f2f0ea" transform="rotate(-6.7 141.0 280.2)" stroke="#d8dde4" stroke-width="1.5"/>
<rect x="170.0" y="260.2" width="48" height="40" rx="6" fill="#f2f0ea" transform="rotate(7.1 194.0 280.2)" stroke="#d8dde4" stroke-width="1.5"/>
<rect x="223.0" y="258.4" width="48" height="40" rx="6" fill="#f2f0ea" transform="rotate(4.6 247.0 278.4)" stroke="#d8dde4" stroke-width="1.5"/>
<rect x="276.0" y="260.7" width="48" height="40" rx="6" fill="#f2f0ea" transform="rotate(-8.4 300.0 280.7)" stroke="#d8dde4" stroke-width="1.5"/>
<rect x="329.0" y="262.1" width="48" height="40" rx="6" fill="#f2f0ea" transform="rotate(1.7 353.0 282.1)" stroke="#d8dde4" stroke-width="1.5"/>
<rect x="382.0" y="254.8" width="48" height="40" rx="6" fill="#f2f0ea" transform="rotate(-9.0 406.0 274.8)" stroke="#d8dde4" stroke-width="1.5"/>
<rect x="435.0" y="263.8" width="48" height="40" rx="6" fill="#f2f0ea" transform="rotate(-0.5 459.0 283.8)" stroke="#d8dde4" stroke-width="1.5"/>
      <text x="300.0" y="422" text-anchor="middle" font-family="Nunito, Arial, sans-serif"
      font-size="26" font-weight="800" fill="#9c4a4a" letter-spacing="1">BEFORE</text>
    </svg>