<svg xmlns="http://www.w3.org/2000/svg" viewBox="0 0 600 450">
      
    <defs>
      <linearGradient id="bgo2" x1="0" y1="0" x2="1" y2="1">
        <stop offset="0" stop-color="#eef9f7"/>
        <stop offset="1" stop-color="#d7f2ec"/>
      </linearGradient>
      <linearGradient id="tootho2" x1="0" y1="0" x2="0" y2="1">
        <stop offset="0" stop-color="#ffffff"/>
        <stop offset="1" stop-color="#eef1f5"/>
      </linearGradient>
    </defs>
    <rect width="600" height="450" fill="url(#bgo2)"/>
    
      
    <path d="M 90 190 Q 300 90 510 190 Q 300 150 90 190 Z" fill="#c46a72" opacity="0.9"/>
    <path d="M 90 260 Q 300 340 510 260 Q 300 300 90 260 Z" fill="#b85862" opacity="0.9"/>
    
      <rect x="113.5" y="150.0" width="44" height="55" rx="6" fill="#ffffff" transform="rotate(0.0 135.5 177.5)" stroke="#d8dde4" stroke-width="1.5"/>
<rect x="160.5" y="150.0" width="44" height="55" rx="6" fill="#ffffff" transform="rotate(0.0 182.5 177.5)" stroke="#d8dde4" stroke-width="1.5"/>
<rect x="207.5" y="150.0" width="44" height="55" rx="6" fill="#ffffff" transform="rotate(0.0 229.5 177.5)" stroke="#d8dde4" stroke-width="1.5"/>
<rect x="254.5" y="150.0" width="44" height="55" rx="6" fill="#ffffff" transform="rotate(0.0 276.5 177.5)" stroke="#d8dde4" stroke-width="1.5"/>
<rect x="301.5" y="150.0" width="44" height="55" rx="6" fill="#ffffff" transform="rotate(0.0 323.5 177.5)" stroke="#d8dde4" stroke-width="1.5"/>
<rect x="348.5" y="150.0" width="44" height="55" rx="6" fill="#ffffff" transform="rotate(0.0 370.5 177.5)" stroke="#d8dde4" stroke-width="1.5"/>
<rect x="395.5" y="150.0" width="44" height="55" rx="6" fill="#ffffff" transform="rotate(0.0 417.5 177.5)" stroke="#d8dde4" stroke-width="1.5"/>
<rect x="442.5" y="150.0" width="44" height="55" rx="6" fill="#ffffff" transform="rotate(0.0 464.5 177.5)" stroke="#d8dde4" stroke-width="1.5"/><rect x="113.5" y="258.0" width="44" height="42" rx="6" fill="#ffffff" transform="rotate(0.0 135.5 279.0)" stroke="#d8dde4" stroke-width="1.5"/>
<rect x="160.5" y="258.0" width="44" height="42" rx="6" fill="#ffffff" transform="rotate(0.0 182.5 279.0)" stroke="#d8dde4" stroke-width="1.5"/>
<rect x="207.5" y="258.0" width="44" height="42" rx="6" fill="#ffffff" transform="rotate(0.0 229.5 279.0)" stroke="#d8dde4" stroke-width="1.5"/>
<rect x="254.5" y="258.0" width="44" height="42" rx="6" fill="#ffffff" transform="rotate(0.0 276.5 279.0)" stroke="#d8dde4" stroke-width="1.5"/>
<rect x="301.5" y="258.0" width="44" height="42" rx="6" fill="#ffffff" transform="rotate(0.0 323.5 279.0)" stroke="#d8dde4" stroke-width="1.5"/>
<rect x="348.5" y="258.0" width="44" height="42" rx="6" fill="#ffffff" transform="rotate(0.0 370.5 279.0)" stroke="#d8dde4" stroke-width="1.5"/>
<rect x="395.5" y="258.0" width="44" height="42" rx="6" fill="#ffffff" transform="rotate(0.0 417.5 279.0)" stroke="#d8dde4" stroke-width="1.5"/>
<rect x="442.5" y="258.0" width="44" height="42" rx="6" fill="#ffffff" transform="rotate(0.0 464.5 279.0)" stroke="#d8dde4" stroke-width="1.5"/>
      <text x="300.0" y="422" text-anchor="middle" font-family="Nunito, Arial, sans-serif"
      font-size="26" font-weight="800" fill="#1E9E88" letter-spacing="1">AFTER</text>
    </svg>